<?xml version="1.0" encoding="UTF-8" standalone="no"?>
<!-- Created with Inkscape (http://www.inkscape.org/) -->

<svg
   xmlns:dc="http://purl.org/dc/elements/1.1/"
   xmlns:cc="http://creativecommons.org/ns#"
   xmlns:rdf="http://www.w3.org/1999/02/22-rdf-syntax-ns#"
   xmlns:svg="http://www.w3.org/2000/svg"
   xmlns="http://www.w3.org/2000/svg"
   xmlns:sodipodi="http://sodipodi.sourceforge.net/DTD/sodipodi-0.dtd"
   xmlns:inkscape="http://www.inkscape.org/namespaces/inkscape"
   width="50"
   height="25"
   viewBox="0 0 50.000001 25"
   id="svg4442"
   version="1.1"
   inkscape:version="0.91 r13725"
   sodipodi:docname="repeat2.svg">
  <defs
     id="defs4444">
    <mask
       maskUnits="userSpaceOnUse"
       id="mask5103">
      <rect
         style="fill:#ffffff;fill-opacity:1;stroke:none;stroke-width:0.1;stroke-miterlimit:4;stroke-dasharray:none;stroke-opacity:1"
         id="rect5105"
         width="3.8328373"
         height="10.803092"
         x="23.489815"
         y="1261.6135"
         transform="matrix(0.73944925,0.67321231,-0.69024878,0.72357212,0,0)" />
    </mask>
    <mask
       maskUnits="userSpaceOnUse"
       id="mask5103-0">
      <rect
         style="fill:#ffffff;fill-opacity:1;stroke:none;stroke-width:0.1;stroke-miterlimit:4;stroke-dasharray:none;stroke-opacity:1"
         id="rect5105-2"
         width="3.8328373"
         height="10.803092"
         x="23.489815"
         y="1261.6135"
         transform="matrix(0.73944925,0.67321231,-0.69024878,0.72357212,0,0)" />
    </mask>
  </defs>
  <sodipodi:namedview
     id="base"
     pagecolor="#ffffff"
     bordercolor="#666666"
     borderopacity="1.0"
     inkscape:pageopacity="0.0"
     inkscape:pageshadow="2"
     inkscape:zoom="15.839192"
     inkscape:cx="25.94647"
     inkscape:cy="14.874897"
     inkscape:document-units="px"
     inkscape:current-layer="g5107"
     showgrid="false"
     units="px"
     borderlayer="false"
     inkscape:window-width="1320"
     inkscape:window-height="747"
     inkscape:window-x="46"
     inkscape:window-y="21"
     inkscape:window-maximized="1" />
  <metadata
     id="metadata4447">
    <rdf:RDF>
      <cc:Work
         rdf:about="">
        <dc:format>image/svg+xml</dc:format>
        <dc:type
           rdf:resource="http://purl.org/dc/dcmitype/StillImage" />
        <dc:title></dc:title>
      </cc:Work>
    </rdf:RDF>
  </metadata>
  <g
     inkscape:label="Layer 1"
     inkscape:groupmode="layer"
     id="layer1"
     transform="translate(0,-1027.3622)">
    <g
       id="g5107"
       transform="matrix(1.4408331,0,0,1.4556416,-6.1869782,-473.27476)">
      <path
         style="fill:#cccccc;fill-opacity:1;stroke:none;stroke-width:0.1;stroke-miterlimit:4;stroke-dasharray:none;stroke-opacity:1"
         d="m 7.0877083,1044.2334 c -0.638509,-0.2635 -1.027841,-0.6307 -1.312652,-1.2379 l -0.16422,-0.3501 -0.01815,-2.9113 c -0.01767,-2.8354 -0.01466,-2.9206 0.115785,-3.2693 0.255441,-0.6827 0.83561,-1.2486 1.505812,-1.4688 0.309449,-0.1016 0.574983,-0.1162 2.121489,-0.1162 l 1.7677667,0 0.01779,0.7419 0.01779,0.7418 -1.4067467,6e-4 c -1.341893,6e-4 -1.4213,0.01 -1.722419,0.1483 -0.36123,0.1689 -0.669343,0.4614 -0.833612,0.7913 -0.100914,0.2027 -0.115421,0.4555 -0.131641,2.2938 -0.01761,1.996 -0.01362,2.0768 0.117637,2.3819 0.07473,0.1737 0.25831,0.4287 0.407964,0.5667 0.504682,0.4652 0.315792,0.4516 6.0324577,0.4322 l 5.076924,-0.017 0.261026,-0.1397 c 0.353143,-0.1888 0.647877,-0.4951 0.806695,-0.8382 0.12501,-0.2701 0.131835,-0.3894 0.131835,-2.3051 l 0,-2.0203 -0.176964,-0.3604 c -0.100696,-0.2051 -0.281902,-0.4435 -0.420455,-0.5532 -0.45433,-0.3599 -0.596599,-0.3807 -2.598813,-0.3807 l -1.822964,0 0,0.7288 0,0.7288 -1.120638,-0.9593 c -0.61635,-0.5277 -1.173753,-1.0089 -1.238673,-1.0696 -0.113801,-0.1063 -0.07417,-0.1432 1.104855,-1.0288 l 1.222889,-0.9186 0.01826,0.497 0.01826,0.497 2.349284,0.023 c 2.298234,0.022 2.357516,0.026 2.728091,0.1726 0.524235,0.2075 1.153034,0.8361 1.361618,1.3611 0.148672,0.3741 0.150778,0.4108 0.172036,2.9989 0.0236,2.8736 -0.01028,3.2613 -0.333094,3.8122 -0.223686,0.3817 -0.663392,0.7736 -1.0948,0.9759 l -0.358298,0.1679 -6.12405,0.015 -6.1240487,0.015 -0.35403,-0.1461 z"
         id="path4147"
         inkscape:connector-curvature="0" />
    </g>
    <path
       style="fill:#d80073;fill-opacity:1;stroke:none;stroke-width:0.1;stroke-miterlimit:4;stroke-dasharray:none;stroke-opacity:1"
       d="m 28.036387,1046.5325 c -0.812716,-0.3781 -1.338764,-0.856 -1.702863,-1.5474 l -0.27865,-0.5292 -0.02579,-4.2143 -0.02579,-4.2141 0.303955,-0.5922 c 0.34576,-0.6737 1.047194,-1.3468 1.75403,-1.6832 0.438403,-0.2085 0.511406,-0.2141 3.210493,-0.2417 l 2.761892,-0.028 0,0.3484 c 0,0.1916 0.02701,0.6548 0.06004,1.0295 l 0.06004,0.6809 -2.079237,0 c -2.344049,0 -2.576964,0.052 -3.270553,0.6927 -0.679188,0.6279 -0.662044,0.5343 -0.695475,3.792 -0.03408,3.3219 -0.0196,3.411 0.67117,4.1318 0.697694,0.7282 0.0904,0.6786 8.708034,0.7079 7.584449,0.025 7.682635,0.024 8.051114,-0.1563 0.475874,-0.2328 0.968684,-0.7051 1.236072,-1.1848 0.202923,-0.3642 0.210453,-0.4659 0.239477,-3.2369 0.02928,-2.7944 0.02523,-2.8703 -0.173068,-3.2485 -0.321353,-0.613 -0.618991,-0.9431 -1.090131,-1.2088 l -0.437828,-0.2465 -2.854726,-0.028 -2.854726,-0.028 0,0.9893 c 0,0.8141 -0.02257,0.9765 -0.127533,0.918 -0.07014,-0.04 -0.87125,-0.6892 -1.780233,-1.4447 l -1.652697,-1.3733 0.400889,-0.3176 c 0.22049,-0.1746 0.990263,-0.7475 1.710605,-1.2732 l 1.309713,-0.9554 0.0807,0.6663 0.0807,0.6662 1.126177,0.014 c 0.619398,0 2.212368,0.034 3.539932,0.066 2.387314,0.058 2.419444,0.061 2.933279,0.3032 0.6296,0.2964 1.498478,1.1422 1.780191,1.733 0.191133,0.4009 0.206214,0.5967 0.2623,3.4068 0.03274,1.6397 0.02582,3.5566 -0.01534,4.2596 -0.06467,1.1042 -0.107286,1.3417 -0.313214,1.7452 -0.284846,0.5581 -1.053167,1.2802 -1.684119,1.5829 l -0.456507,0.219 -9.051573,0.055 -9.051574,0.055 -0.659166,-0.3065 z"
       id="path4220"
       inkscape:connector-curvature="0" />
  </g>
</svg>
